<svg width="25" height="25" viewBox="0 0 25 25" fill="none" xmlns="http://www.w3.org/2000/svg">
<path fill-rule="evenodd" clip-rule="evenodd" d="M4.12927 8.25659C4.12927 5.21904 6.59166 2.75659 9.62919 2.75659C12.6667 2.75659 15.1291 5.21904 15.1291 8.25659C15.1291 10.1461 14.1763 11.813 12.725 12.8032C16.0895 14.0357 18.513 17.2196 18.6251 20.9843C18.6374 21.3983 18.3117 21.7439 17.8977 21.7563C17.4837 21.7686 17.138 21.4429 17.1257 21.0289C17.0056 16.9923 13.6951 13.7566 9.6291 13.7566C5.56313 13.7566 2.25262 16.9923 2.13249 21.0289C2.12016 21.4429 1.77454 21.7686 1.36051 21.7563C0.946477 21.7439 0.620828 21.3983 0.633151 20.9843C0.745199 17.2195 3.16878 14.0356 6.53334 12.8032C5.08204 11.813 4.12927 10.1461 4.12927 8.25659ZM9.62919 4.25659C7.42011 4.25659 5.62927 6.04744 5.62927 8.25659C5.62927 10.4657 7.42011 12.2566 9.62919 12.2566C11.8383 12.2566 13.6291 10.4657 13.6291 8.25659C13.6291 6.04744 11.8383 4.25659 9.62919 4.25659Z" fill="#4567AA"/>
<path d="M17.9192 8.25659C17.7715 8.25659 17.6267 8.2671 17.4854 8.28731C17.0754 8.34596 16.6954 8.06109 16.6368 7.65105C16.5782 7.24101 16.863 6.86107 17.2731 6.80242C17.4845 6.77218 17.7002 6.75659 17.9192 6.75659C20.421 6.75659 22.4491 8.78475 22.4491 11.2866C22.4491 12.7624 21.7433 14.0725 20.6528 14.899C22.9842 15.9441 24.6091 18.2848 24.6091 21.0066C24.6091 21.4208 24.2733 21.7566 23.8591 21.7566C23.4449 21.7566 23.1091 21.4208 23.1091 21.0066C23.1091 18.6607 21.5522 16.6765 19.4136 16.0348L18.8791 15.8744V14.1984L19.2894 13.99C20.2759 13.4887 20.9491 12.4656 20.9491 11.2866C20.9491 9.61316 19.5926 8.25659 17.9192 8.25659Z" fill="#4567AA"/>
</svg>
