<svg width="25" height="25" viewBox="0 0 25 25" fill="none" xmlns="http://www.w3.org/2000/svg">
<path d="M22.8466 17.0949V20.0949C22.8477 20.3734 22.7907 20.6491 22.6791 20.9042C22.5676 21.1594 22.4039 21.3885 22.1987 21.5768C21.9935 21.765 21.7512 21.9084 21.4874 21.9976C21.2235 22.0868 20.944 22.12 20.6666 22.0949C17.5894 21.7605 14.6336 20.709 12.0366 19.0249C9.62044 17.4896 7.57195 15.4411 6.03661 13.0249C4.34659 10.4161 3.29486 7.4459 2.96661 4.3549C2.94162 4.07837 2.97449 3.79966 3.06311 3.53653C3.15174 3.27339 3.29418 3.03159 3.48138 2.82652C3.66857 2.62145 3.89642 2.45761 4.1504 2.34542C4.40439 2.23324 4.67895 2.17516 4.95661 2.1749H7.95661C8.44192 2.17013 8.9124 2.34198 9.28037 2.65843C9.64834 2.97489 9.88869 3.41435 9.95661 3.8949C10.0832 4.85497 10.3181 5.79763 10.6566 6.7049C10.7912 7.06283 10.8203 7.45182 10.7405 7.82578C10.6608 8.19975 10.4755 8.54301 10.2066 8.8149L8.93661 10.0849C10.3602 12.5884 12.4331 14.6613 14.9366 16.0849L16.2066 14.8149C16.4785 14.546 16.8218 14.3608 17.1957 14.281C17.5697 14.2012 17.9587 14.2304 18.3166 14.3649C19.2239 14.7035 20.1665 14.9383 21.1266 15.0649C21.6124 15.1334 22.056 15.3781 22.3731 15.7524C22.6903 16.1267 22.8588 16.6045 22.8466 17.0949Z" stroke="#4567AA" stroke-width="1.6" stroke-linecap="round" stroke-linejoin="round"/>
</svg>
