<svg width="46" height="45" viewBox="0 0 46 45" fill="none" xmlns="http://www.w3.org/2000/svg">
<g clip-path="url(#clip0_213_381)">
<path d="M0 21.6C0 11.4176 0 6.32649 3.23354 3.16325C6.46708 0 11.6714 0 22.08 0H23.92C34.3286 0 39.5329 0 42.7665 3.16325C46 6.32649 46 11.4176 46 21.6V23.4C46 33.5824 46 38.6735 42.7665 41.8368C39.5329 45 34.3286 45 23.92 45H22.08C11.6714 45 6.46708 45 3.23354 41.8368C0 38.6735 0 33.5824 0 23.4V21.6Z" fill="#4567AA"/>
<path d="M24.3972 32.4C13.71 32.4 7.61434 25.3054 7.36035 13.5H12.7137C12.8895 22.1649 16.8361 25.8351 19.9621 26.5919V13.5H25.0031V20.973C28.09 20.6514 31.3329 17.2459 32.427 13.5H37.4679C36.6278 18.1162 33.111 21.5216 30.6101 22.9216C33.111 24.0568 37.1164 27.027 38.6404 32.4H33.0914C31.8996 28.8054 28.9302 26.0243 25.0031 25.6459V32.4H24.3972Z" fill="white"/>
</g>
<defs>
<clipPath id="clip0_213_381">
<rect width="46" height="45" fill="white"/>
</clipPath>
</defs>
</svg>
