<svg width="45" height="46" viewBox="0 0 45 46" fill="none" xmlns="http://www.w3.org/2000/svg">
<path d="M18 29.5603V16.44L29.7 23.0002L18 29.5603Z" fill="white"/>
<path d="M44.0506 12.4775C43.7946 11.5534 43.2931 10.7107 42.5965 10.034C41.8999 9.35721 41.0325 8.87008 40.0812 8.62132C36.5778 7.7002 22.5 7.7002 22.5 7.7002C22.5 7.7002 8.42218 7.7002 4.9188 8.62132C3.96749 8.87008 3.10012 9.35721 2.40349 10.034C1.70687 10.7107 1.20544 11.5534 0.949372 12.4775C0.295213 15.9486 -0.0222328 19.4716 0.00120921 23.0002C-0.0222328 26.5288 0.295213 30.0518 0.949372 33.5228C1.20544 34.447 1.70687 35.2897 2.40349 35.9664C3.10012 36.6432 3.96749 37.1303 4.9188 37.3791C8.42218 38.3002 22.5 38.3002 22.5 38.3002C22.5 38.3002 36.5778 38.3002 40.0812 37.3791C41.0325 37.1303 41.8999 36.6432 42.5965 35.9664C43.2931 35.2897 43.7946 34.447 44.0506 33.5228C44.7048 30.0518 45.0222 26.5288 44.9988 23.0002C45.0222 19.4716 44.7048 15.9486 44.0506 12.4775ZM18.0002 29.5573V16.4431L29.6835 23.0002L18.0002 29.5573Z" fill="#4567AA"/>
</svg>
